<svg width="13" height="14" viewBox="0 0 13 14" fill="none" xmlns="http://www.w3.org/2000/svg">
<path fill-rule="evenodd" clip-rule="evenodd" d="M5.57129 1.74998C5.41658 1.74998 5.26821 1.81144 5.15881 1.92083C5.04941 2.03023 4.98796 2.1786 4.98796 2.33331V2.91663H8.48796V2.33331C8.48796 2.1786 8.4265 2.03023 8.3171 1.92083C8.20771 1.81144 8.05933 1.74998 7.90462 1.74998H5.57129ZM9.65462 2.91663V2.33331C9.65462 1.86918 9.47025 1.42406 9.14206 1.09588C8.81387 0.767687 8.36875 0.583313 7.90462 0.583313H5.57129C5.10716 0.583313 4.66204 0.767687 4.33385 1.09588C4.00566 1.42406 3.82129 1.86918 3.82129 2.33331V2.91663H1.48763C1.16546 2.91663 0.904297 3.17779 0.904297 3.49996C0.904297 3.82213 1.16546 4.08329 1.48763 4.08329H2.07099L2.07129 11.6666C2.07129 11.6666 2.07129 11.6667 2.07129 11.6666C2.0713 12.1308 2.25567 12.5759 2.58385 12.9041C2.91204 13.2323 3.35716 13.4166 3.82129 13.4166H9.65462C10.1188 13.4166 10.5639 13.2323 10.8921 12.9041C11.2202 12.5759 11.4046 12.1308 11.4046 11.6666V4.08329H11.9876C12.3098 4.08329 12.571 3.82213 12.571 3.49996C12.571 3.17779 12.3098 2.91663 11.9876 2.91663H9.65462ZM9.06635 4.08329C9.06799 4.08331 9.06964 4.08331 9.07129 4.08331C9.07294 4.08331 9.07459 4.08331 9.07623 4.08329H10.238V11.6666C10.238 11.8214 10.1765 11.9697 10.0671 12.0791C9.9577 12.1885 9.80933 12.25 9.65462 12.25H3.82129C3.66658 12.25 3.51821 12.1885 3.40881 12.0791C3.29941 11.9697 3.23796 11.8214 3.23796 11.6666L3.23765 4.08329H4.39968C4.40133 4.08331 4.40297 4.08331 4.40462 4.08331C4.40627 4.08331 4.40792 4.08331 4.40956 4.08329H9.06635ZM5.57064 5.83331C5.8928 5.83331 6.15397 6.09448 6.15397 6.41665V9.91665C6.15397 10.2388 5.8928 10.5 5.57064 10.5C5.24847 10.5 4.9873 10.2388 4.9873 9.91665V6.41665C4.9873 6.09448 5.24847 5.83331 5.57064 5.83331ZM7.90462 5.83331C8.22679 5.83331 8.48796 6.09448 8.48796 6.41665V9.91665C8.48796 10.2388 8.22679 10.5 7.90462 10.5C7.58246 10.5 7.32129 10.2388 7.32129 9.91665V6.41665C7.32129 6.09448 7.58246 5.83331 7.90462 5.83331Z" fill="#45464A"/>
</svg>
