<svg width="13" height="12" viewBox="0 0 13 12" fill="none" xmlns="http://www.w3.org/2000/svg">
<path fill-rule="evenodd" clip-rule="evenodd" d="M6.40367 0.166687C6.72584 0.166702 6.98699 0.427881 6.98698 0.750048L6.98672 6.34164L8.90751 4.42085C9.13531 4.19305 9.50466 4.19305 9.73247 4.42085C9.96027 4.64866 9.96027 5.01801 9.73247 5.24581L6.8158 8.16248C6.58799 8.39029 6.21865 8.39029 5.99084 8.16248L3.07417 5.24581C2.84637 5.01801 2.84637 4.64866 3.07417 4.42085C3.30198 4.19305 3.67133 4.19305 3.89913 4.42085L5.82005 6.34177L5.82031 0.749993C5.82033 0.427827 6.08151 0.166672 6.40367 0.166687ZM1.15365 7.16669C1.47581 7.16669 1.73698 7.42785 1.73698 7.75002V10.0834C1.73698 10.2381 1.79844 10.3864 1.90783 10.4958C2.01723 10.6052 2.1656 10.6667 2.32031 10.6667H10.487C10.6417 10.6667 10.7901 10.6052 10.8995 10.4958C11.0089 10.3864 11.0703 10.2381 11.0703 10.0834V7.75002C11.0703 7.42785 11.3315 7.16669 11.6536 7.16669C11.9758 7.16669 12.237 7.42785 12.237 7.75002V10.0834C12.237 10.5475 12.0526 10.9926 11.7244 11.3208C11.3962 11.649 10.9511 11.8334 10.487 11.8334H2.32031C1.85618 11.8334 1.41106 11.649 1.08288 11.3208C0.754687 10.9926 0.570312 10.5475 0.570312 10.0834V7.75002C0.570312 7.42785 0.83148 7.16669 1.15365 7.16669Z" fill="#45464A"/>
</svg>
