<svg width="13" height="14" viewBox="0 0 13 14" fill="none" xmlns="http://www.w3.org/2000/svg">
<path fill-rule="evenodd" clip-rule="evenodd" d="M0.512563 2.29796C0.840752 1.96977 1.28587 1.7854 1.75 1.7854H5.83333C6.1555 1.7854 6.41667 2.04657 6.41667 2.36873C6.41667 2.6909 6.1555 2.95207 5.83333 2.95207H1.75C1.59529 2.95207 1.44692 3.01353 1.33752 3.12292C1.22812 3.23232 1.16667 3.38069 1.16667 3.5354V11.7021C1.16667 11.8568 1.22812 12.0051 1.33752 12.1145C1.44692 12.2239 1.59529 12.2854 1.75 12.2854H9.91667C10.0714 12.2854 10.2197 12.2239 10.3291 12.1145C10.4385 12.0051 10.5 11.8568 10.5 11.7021V7.61873C10.5 7.29657 10.7612 7.0354 11.0833 7.0354C11.4055 7.0354 11.6667 7.29657 11.6667 7.61873V11.7021C11.6667 12.1662 11.4823 12.6113 11.1541 12.9395C10.8259 13.2677 10.3808 13.4521 9.91667 13.4521H1.75C1.28587 13.4521 0.840752 13.2677 0.512563 12.9395C0.184374 12.6113 0 12.1662 0 11.7021V3.5354C0 3.07127 0.184374 2.62615 0.512563 2.29796Z" fill="#45464A"/>
<path fill-rule="evenodd" clip-rule="evenodd" d="M11.0833 1.71464C10.9099 1.71464 10.7435 1.78355 10.6208 1.90622L5.1934 7.33364L4.88505 8.56703L6.11844 8.25868L11.5459 2.83126C11.6685 2.7086 11.7374 2.54222 11.7374 2.36874C11.7374 2.19527 11.6685 2.02889 11.5459 1.90622C11.4232 1.78355 11.2568 1.71464 11.0833 1.71464ZM9.79585 1.08126C10.1373 0.739804 10.6004 0.547974 11.0833 0.547974C11.5662 0.547974 12.0294 0.739804 12.3708 1.08126C12.7123 1.42273 12.9041 1.88585 12.9041 2.36874C12.9041 2.85164 12.7123 3.31476 12.3708 3.65622L6.82915 9.19789C6.75439 9.27265 6.66071 9.32569 6.55815 9.35133L4.22481 9.93466C4.02603 9.98436 3.81574 9.92611 3.67085 9.78122C3.52597 9.63633 3.46772 9.42605 3.51742 9.22727L4.10075 6.89393C4.12639 6.79136 4.17943 6.69769 4.25419 6.62293L9.79585 1.08126Z" fill="#45464A"/>
</svg>
