<svg width="16" height="16" viewBox="0 0 16 16" fill="none" xmlns="http://www.w3.org/2000/svg">
    <path
        d="M11.8223 5.90235H9.7998V7.10244H11.8223C12.4238 7.10244 12.8904 7.40966 12.8904 7.67408V12.9957C12.8904 13.2601 12.4238 13.5673 11.8223 13.5673H4.1774C3.57596 13.5673 3.10933 13.2601 3.10933 12.9957V7.67428C3.10933 7.40986 3.57596 7.10264 4.1774 7.10264H6.19954V5.90255H4.1774C2.90551 5.90255 1.90924 6.68081 1.90924 7.67428V12.9959C1.90924 13.9895 2.90551 14.7676 4.1774 14.7676H11.8225C13.0942 14.7676 14.0907 13.9893 14.0907 12.9959V7.67428C14.0905 6.68061 13.0942 5.90235 11.8223 5.90235Z"
        fill="#45464A" />
    <path
        d="M6.22414 4.22363C6.30295 4.22373 6.381 4.20824 6.45381 4.17807C6.52661 4.1479 6.59273 4.10363 6.64837 4.04782L7.39963 3.29657V9.4014C7.39963 9.56054 7.46285 9.71316 7.57538 9.82569C7.68791 9.93822 7.84053 10.0014 7.99967 10.0014C8.15881 10.0014 8.31143 9.93822 8.42396 9.82569C8.53649 9.71316 8.59971 9.56054 8.59971 9.4014V3.25597L9.39157 4.04782C9.50878 4.16503 9.66239 4.22363 9.8158 4.22363C9.96921 4.22363 10.1228 4.16503 10.24 4.04782C10.2958 3.99213 10.34 3.926 10.3702 3.85321C10.4003 3.78042 10.4159 3.70239 10.4159 3.62359C10.4159 3.54479 10.4003 3.46677 10.3702 3.39398C10.34 3.32118 10.2958 3.25505 10.24 3.19936L8.4485 1.40784C8.39287 1.35209 8.32677 1.3079 8.254 1.2778C8.18123 1.24769 8.10322 1.23227 8.02447 1.23242H8.01527C7.86186 1.23242 7.70845 1.29063 7.59124 1.40784L5.79971 3.19936C5.71562 3.28322 5.65831 3.39015 5.63506 3.50662C5.61182 3.62308 5.62368 3.74383 5.66914 3.85354C5.7146 3.96326 5.79162 4.057 5.89043 4.12289C5.98924 4.18878 6.10538 4.22384 6.22414 4.22363Z"
        fill="#45464A" />
</svg>
    