<svg width="15" height="13" viewBox="0 0 15 13" fill="none" xmlns="http://www.w3.org/2000/svg">
<path fill-rule="evenodd" clip-rule="evenodd" d="M5.29863 0.618687C6.09224 0.590147 6.88199 0.742017 7.60842 1.06286C8.33485 1.38371 8.97902 1.86517 9.49246 2.47099C9.90691 2.96004 10.2275 3.51983 10.4395 4.12209L10.7421 4.12209C10.7422 4.12209 10.7423 4.12209 10.7424 4.12209C10.7424 4.12209 10.7425 4.12209 10.7425 4.12209C11.4864 4.12161 12.211 4.3581 12.8113 4.79729C13.4118 5.23655 13.8566 5.85574 14.0814 6.56497C14.3061 7.27421 14.2989 8.03659 14.061 8.7415C13.823 9.4464 13.3667 10.0571 12.7581 10.4851C12.4945 10.6704 12.1307 10.607 11.9454 10.3435C11.7601 10.0799 11.8235 9.71607 12.087 9.53076C12.4927 9.24546 12.797 8.8383 12.9556 8.36836C13.1142 7.89843 13.119 7.39017 12.9692 6.91734C12.8194 6.44452 12.5228 6.03173 12.1225 5.73889C11.7222 5.44604 11.239 5.28837 10.743 5.28876L10.7425 5.28876H10.0075C9.74121 5.28876 9.5087 5.10838 9.44251 4.85041C9.28899 4.25214 9.00176 3.69648 8.60242 3.22528C8.20309 2.75408 7.70206 2.37962 7.13706 2.13007C6.57206 1.88052 5.95781 1.7624 5.34056 1.7846C4.7233 1.8068 4.11912 1.96874 3.57351 2.25822C3.02789 2.54771 2.55506 2.9572 2.1906 3.45586C1.82615 3.95453 1.57956 4.52938 1.46942 5.13714C1.35928 5.74489 1.38844 6.36971 1.55472 6.96457C1.721 7.55942 2.02006 8.1088 2.42938 8.57135C2.64288 8.81261 2.62038 9.18127 2.37911 9.39477C2.13785 9.60827 1.76919 9.58577 1.55569 9.3445C1.02941 8.7498 0.644912 8.04345 0.431126 7.27864C0.217339 6.51383 0.179841 5.71049 0.321454 4.92909C0.463066 4.14769 0.7801 3.4086 1.24869 2.76745C1.71727 2.12631 2.3252 1.59982 3.02671 1.22763C3.72821 0.855432 4.50501 0.647227 5.29863 0.618687ZM7.2424 5.8721C7.56456 5.87208 7.82575 6.13323 7.82577 6.45539L7.826 10.2972L9.16361 8.95964C9.39142 8.73183 9.76076 8.73183 9.98857 8.95964C10.2164 9.18744 10.2164 9.55679 9.98857 9.7846L7.65524 12.1179C7.42743 12.3457 7.05808 12.3457 6.83028 12.1179L4.49694 9.7846C4.26914 9.55679 4.26914 9.18744 4.49694 8.95964C4.72475 8.73183 5.0941 8.73183 5.3219 8.95964L6.65934 10.2971L6.6591 6.45547C6.65908 6.1333 6.92023 5.87212 7.2424 5.8721Z" fill="#45464A"/>
</svg>
