<svg width="512" height="512" viewBox="0 0 512 512" fill="none" xmlns="http://www.w3.org/2000/svg">
<path d="M426.857 218.857H300.571C298.601 218.857 296.712 218.075 295.319 216.681C293.926 215.288 293.143 213.399 293.143 211.429V85.1429C293.143 64.6307 276.512 48 256 48C235.488 48 218.857 64.6307 218.857 85.1429V211.429C218.857 213.399 218.075 215.288 216.681 216.681C215.288 218.075 213.399 218.857 211.429 218.857H85.1429C64.6307 218.857 48 235.488 48 256C48 276.512 64.6307 293.143 85.1429 293.143H211.429C213.399 293.143 215.288 293.926 216.681 295.319C218.075 296.712 218.857 298.601 218.857 300.571V426.857C218.857 447.369 235.488 464 256 464C276.512 464 293.143 447.369 293.143 426.857V300.571C293.143 298.601 293.926 296.712 295.319 295.319C296.712 293.926 298.601 293.143 300.571 293.143H426.857C447.369 293.143 464 276.512 464 256C464 235.488 447.369 218.857 426.857 218.857Z" fill="white"/>
</svg>
