<svg width="512" height="512" viewBox="0 0 512 512" fill="none" xmlns="http://www.w3.org/2000/svg">
<path d="M349.067 139.261C324.988 119.994 295.729 104.714 260.461 104.714C232.665 104.726 205.407 112.373 181.659 126.82C157.912 141.268 138.588 161.961 125.795 186.643C113.003 211.324 107.233 239.046 109.116 266.783C110.999 294.519 120.462 321.206 136.473 343.932C152.484 366.657 174.427 384.548 199.909 395.652C225.391 406.756 253.433 410.648 280.975 406.901C308.517 403.155 334.502 391.915 356.093 374.408C377.685 356.9 394.055 333.798 403.416 307.621C407.16 297.098 417.783 290.014 428.709 292.342L448.499 296.551C459.425 298.858 466.507 309.645 463.168 320.311C436.054 406.485 355.603 469 260.461 469C143.122 469 48 373.861 48 256.5C48 139.139 143.122 44 260.461 44C316.773 44 360.661 69.6619 392.207 96.1131L428.264 60.0488C431.094 57.2193 434.699 55.2925 438.624 54.512C442.548 53.7315 446.616 54.1322 450.313 55.6637C454.009 57.1951 457.169 59.7884 459.393 63.1157C461.616 66.4431 462.803 70.3551 462.804 74.3571V185.667C462.804 191.034 460.672 196.182 456.878 199.977C453.083 203.773 447.936 205.905 442.57 205.905H331.281C327.28 205.904 323.368 204.716 320.042 202.493C316.715 200.269 314.122 197.108 312.591 193.411C311.06 189.713 310.659 185.645 311.439 181.72C312.22 177.794 314.146 174.189 316.975 171.358L349.067 139.261Z" fill="white"/>
</svg>
