<svg width="15" height="13" viewBox="0 0 15 13" fill="none" xmlns="http://www.w3.org/2000/svg">
<path d="M7.73896 11.8333C7.73896 12.0101 7.66759 12.1797 7.54056 12.3047C7.41352 12.4298 7.24122 12.5 7.06156 12.5C3.63658 12.5 0.833008 9.82889 0.833008 6.5C0.833008 3.17111 3.63658 0.5 7.06156 0.5C9.86603 0.5 12.2541 2.29111 13.0273 4.76756L13.5719 3.86089C13.6633 3.7086 13.8124 3.59827 13.9865 3.55418C14.1605 3.51008 14.3452 3.53584 14.5 3.62578C14.6547 3.71572 14.7668 3.86247 14.8116 4.03375C14.8564 4.20503 14.8302 4.38682 14.7389 4.53911L13.2666 6.988C13.1765 7.13823 13.0301 7.24769 12.8588 7.29289C12.6876 7.33809 12.5052 7.31543 12.3508 7.22978L9.8019 5.81556C9.72439 5.77254 9.65624 5.71492 9.60136 5.64599C9.54647 5.57705 9.50592 5.49816 9.48202 5.4138C9.45811 5.32944 9.45133 5.24128 9.46205 5.15434C9.47276 5.0674 9.50078 4.98339 9.54448 4.90711C9.58819 4.83083 9.64674 4.76376 9.71679 4.70975C9.78683 4.65573 9.867 4.61582 9.95271 4.5923C10.0384 4.56878 10.128 4.5621 10.2164 4.57265C10.3047 4.58319 10.3901 4.61076 10.4676 4.65378L11.7971 5.39156C11.2787 3.35778 9.36655 1.83333 7.06246 1.83333C4.35463 1.83333 2.18783 3.93733 2.18783 6.5C2.18783 9.06267 4.35463 11.1667 7.06156 11.1667C7.24122 11.1667 7.41352 11.2369 7.54056 11.3619C7.66759 11.487 7.73896 11.6565 7.73896 11.8333Z" fill="black"/>
</svg>
