<svg width="16" height="16" viewBox="0 0 16 16" fill="none" xmlns="http://www.w3.org/2000/svg">
<path fill-rule="evenodd" clip-rule="evenodd" d="M2.55556 1.75C2.34191 1.75 2.13701 1.83487 1.98594 1.98594C1.83487 2.13701 1.75 2.34191 1.75 2.55556V13.4444C1.75 13.6581 1.83487 13.863 1.98594 14.0141C2.13701 14.1651 2.34191 14.25 2.55556 14.25H3.36088V8.77785C3.36088 8.36364 3.69666 8.02785 4.11088 8.02785H11.8887C12.3029 8.02785 12.6387 8.36364 12.6387 8.77785V14.25H13.4444C13.6581 14.25 13.863 14.1651 14.0141 14.0141C14.1651 13.863 14.25 13.6581 14.25 13.4444V5.19955L10.8005 1.75H4.86088V4.13889H10.3331C10.7473 4.13889 11.0831 4.47468 11.0831 4.88889C11.0831 5.3031 10.7473 5.63889 10.3331 5.63889H4.11088C3.69666 5.63889 3.36088 5.3031 3.36088 4.88889V1.75H2.55556ZM2.55556 0.25C1.94408 0.25 1.35766 0.492906 0.925282 0.925282C0.492906 1.35766 0.25 1.94408 0.25 2.55556V13.4444C0.25 14.0559 0.492906 14.6423 0.925282 15.0747C1.35766 15.5071 1.94408 15.75 2.55556 15.75H4.10034C4.10385 15.75 4.10736 15.7501 4.11088 15.7501C4.11439 15.7501 4.11791 15.75 4.12141 15.75H11.8781C11.8816 15.75 11.8851 15.7501 11.8887 15.7501C11.8922 15.7501 11.8957 15.75 11.8992 15.75H13.4444C14.0559 15.75 14.6423 15.5071 15.0747 15.0747C15.5071 14.6423 15.75 14.0559 15.75 13.4444V4.88889C15.75 4.68998 15.671 4.49921 15.5303 4.35856L11.6414 0.46967C11.5008 0.329018 11.31 0.25 11.1111 0.25H2.55556ZM11.1387 14.25V9.52785H4.86088V14.25H11.1387Z" fill="white"/>
</svg>
