<svg width="42" height="35" viewBox="0 0 42 35" fill="none" xmlns="http://www.w3.org/2000/svg">
<path d="M28.2799 24.8321L21.0078 17.4977M21.0078 17.4977L13.7358 24.8321M21.0078 17.4977V34M36.261 29.2143C38.0342 28.2394 39.4349 26.6966 40.2422 24.8296C41.0495 22.9625 41.2173 20.8775 40.7191 18.9035C40.221 16.9296 39.0852 15.1792 37.4912 13.9286C35.8971 12.678 33.9355 11.9983 31.9159 11.997H29.6252C29.0749 9.85031 28.0493 7.85738 26.6254 6.16802C25.2015 4.47866 23.4164 3.13684 21.4044 2.24344C19.3923 1.35004 17.2056 0.928309 15.0086 1.00995C12.8117 1.09158 10.6616 1.67447 8.72021 2.71478C6.77877 3.75509 5.09643 5.22576 3.79966 7.01622C2.50289 8.80667 1.62544 10.8703 1.23327 13.052C0.841108 15.2337 0.944435 17.4767 1.53549 19.6123C2.12654 21.748 3.18993 23.7207 4.64572 25.3822" stroke="white" stroke-width="2" stroke-linecap="round" stroke-linejoin="round"/>
</svg>
